<svg width="25" height="24" viewBox="0 0 25 24" fill="none" xmlns="http://www.w3.org/2000/svg">
<path d="M8.5 7V15C8.5 15.5304 8.71071 16.0391 9.08579 16.4142C9.46086 16.7893 9.96957 17 10.5 17H16.5M8.5 7V5C8.5 4.46957 8.71071 3.96086 9.08579 3.58579C9.46086 3.21071 9.96957 3 10.5 3H15.086C15.3512 3.00006 15.6055 3.10545 15.793 3.293L20.207 7.707C20.3946 7.89449 20.4999 8.1488 20.5 8.414V15C20.5 15.5304 20.2893 16.0391 19.9142 16.4142C19.5391 16.7893 19.0304 17 18.5 17H16.5M8.5 7H6.5C5.96957 7 5.46086 7.21071 5.08579 7.58579C4.71071 7.96086 4.5 8.46957 4.5 9V19C4.5 19.5304 4.71071 20.0391 5.08579 20.4142C5.46086 20.7893 5.96957 21 6.5 21H14.5C15.0304 21 15.5391 20.7893 15.9142 20.4142C16.2893 20.0391 16.5 19.5304 16.5 19V17" stroke="#2563EB" stroke-width="2" stroke-linecap="round" stroke-linejoin="round"/>
</svg>
